<?xml version="1.0" standalone="no"?>
<!DOCTYPE svg PUBLIC "-//W3C//DTD SVG 20010904//EN"
 "http://www.w3.org/TR/2001/REC-SVG-20010904/DTD/svg10.dtd">
<svg version="1.0" xmlns="http://www.w3.org/2000/svg"
 width="1024.000000pt" height="1024.000000pt" viewBox="0 0 1024.000000 1024.000000"
 preserveAspectRatio="xMidYMid meet">

<defs>
  <linearGradient id="gold-gradient" x1="0%" y1="0%" x2="100%" y2="100%">
    <stop offset="0%" stop-color="#FFF8DC"/>
    <stop offset="30%" stop-color="#FFD700"/>
    <stop offset="70%" stop-color="#DAA520"/>
    <stop offset="100%" stop-color="#B8860B"/>
  </linearGradient>
</defs>

<rect width="100%" height="100%" fill="#FFFFFF"/>


<g transform="translate(0.000000,1024.000000) scale(0.100000,-0.100000)" fill="url(#gold-gradient)" stroke="#B8860B" stroke-width="5">


<path d="M0 5120 l0 -5120 5120 0 5120 0 0 5120 0 5120 -5120 0 -5120 0 0
-5120z m7750 4195 c0 -45 -226 -285 -947 -1007 l-466 -467 -50 25 -50 26 29
18 c16 9 327 315 692 679 365 364 686 679 713 701 53 42 79 50 79 25z m149
-217 c-18 -24 -333 -344 -701 -711 l-667 -668 -25 18 c-14 10 -26 22 -26 26 0
14 1262 1271 1323 1316 31 24 72 47 90 51 17 4 34 8 35 9 2 1 -11 -18 -29 -41z
m-3889 -92 c0 -30 -214 -262 -594 -643 -221 -222 -590 -593 -821 -826 -516
-520 -806 -802 -865 -842 -25 -16 -47 -32 -50 -35 -10 -10 -86 -57 -103 -63
-15 -6 -16 -4 -6 14 22 41 80 102 627 658 198 200 278 290 242 271 -24 -13
-24 -12 -10 6 8 10 23 28 33 38 9 11 17 23 17 28 0 4 7 8 16 8 8 0 12 5 9 10
-4 6 -11 7 -17 4 -7 -4 -8 -2 -4 4 4 6 13 9 21 5 8 -3 15 0 15 7 0 6 5 8 10 5
8 -5 7 -12 -2 -23 -12 -16 57 41 93 77 9 9 172 169 361 356 422 416 822 804
897 868 44 38 112 84 129 87 1 0 2 -6 2 -14z m2066 -175 c-2 -25 -5 -52 -5
-59 -1 -7 -5 -10 -11 -7 -12 7 -13 71 -3 141 l7 49 8 -39 c5 -21 6 -60 4 -85z
m-203 32 c-5 -102 -9 -113 -41 -112 l-27 1 25 7 c28 8 27 4 29 107 0 41 5 73
9 70 5 -3 7 -36 5 -73z m394 -19 c-4 -79 -4 -83 17 -87 11 -2 1 -4 -24 -4 -25
1 -37 2 -27 5 15 3 17 16 17 93 0 65 3 88 11 83 8 -5 10 -34 6 -90z m-587 6
c0 -47 -4 -80 -10 -80 -11 0 -14 142 -3 153 12 13 13 7 13 -73z m777 -42 c-2
-24 -4 -5 -4 42 0 47 2 66 4 43 2 -24 2 -62 0 -85z m1444 30 c25 -24 78 -81
119 -127 78 -89 120 -121 160 -121 l25 -1 -27 -12 c-15 -7 -52 -36 -83 -66
-30 -29 -55 -48 -55 -42 0 6 -7 11 -16 11 -9 0 -12 -5 -8 -12 5 -9 2 -9 -9 1
-15 12 -17 11 -17 -3 0 -29 -15 -17 -27 22 -13 41 -8 82 10 82 6 0 2 7 -9 15
-18 15 -18 15 0 8 14 -5 17 -3 11 7 -5 8 -4 11 2 7 5 -4 19 2 30 12 17 16 23
17 44 5 36 -20 48 -16 19 6 -30 23 -61 25 -98 6 -27 -14 -165 -150 -218 -215
-25 -30 -26 -33 -6 -22 12 6 22 17 22 24 0 7 7 3 15 -7 17 -23 20 -57 5 -72
-7 -7 -4 -17 8 -30 22 -24 17 -51 -16 -86 -22 -24 -23 -28 -8 -28 13 0 4 -14
-32 -52 -27 -29 -69 -75 -93 -103 -50 -57 -90 -100 -320 -345 -197 -210 -329
-343 -329 -330 0 5 4 11 9 14 14 9 20 45 9 53 -6 3 -8 1 -4 -5 3 -6 2 -13 -3
-17 -5 -3 -14 3 -20 12 -6 10 -11 14 -11 9 0 -22 -58 58 -64 89 -6 31 -26 51
-26 25 0 -5 -8 -14 -18 -19 -15 -8 -35 2 -102 50 -46 32 -89 59 -97 59 -7 0
-13 5 -13 11 0 5 258 270 573 587 315 317 583 592 596 610 12 17 23 32 25 32
1 0 22 -19 47 -42z m811 0 c-31 -64 -87 -127 -415 -463 -183 -187 -399 -409
-482 -493 -222 -227 -247 -248 -319 -255 l-60 -6 530 530 c519 520 703 694
761 718 1 1 -6 -14 -15 -31z m-2055 -25 c-3 -10 -5 -2 -5 17 0 19 2 27 5 18 2
-10 2 -26 0 -35z m-1505 -93 c65 -66 118 -125 118 -130 0 -5 -20 -18 -45 -29
-25 -11 -71 -40 -103 -64 -88 -68 -93 -70 -135 -42 -20 14 -38 21 -42 16 -3
-6 0 -13 7 -18 7 -4 19 -20 26 -34 8 -15 25 -38 38 -52 13 -14 20 -28 15 -31
-5 -3 -62 50 -126 119 l-117 125 43 57 c60 78 179 203 192 203 6 0 64 -54 129
-120z m565 34 c-3 -3 -12 -4 -19 -1 -8 3 -5 6 6 6 11 1 17 -2 13 -5z m66 -1
c-7 -2 -21 -2 -30 0 -10 3 -4 5 12 5 17 0 24 -2 18 -5z m394 0 c-20 -2 -52 -2
-70 0 -17 2 0 4 38 4 39 0 53 -2 32 -4z m160 1 c-3 -3 -12 -4 -19 -1 -8 3 -5
6 6 6 11 1 17 -2 13 -5z m56 -1 c-7 -2 -21 -2 -30 0 -10 3 -4 5 12 5 17 0 24
-2 18 -5z m110 0 c-7 -2 -19 -2 -25 0 -7 3 -2 5 12 5 14 0 19 -2 13 -5z m50 0
c-7 -2 -19 -2 -25 0 -7 3 -2 5 12 5 14 0 19 -2 13 -5z m-474 -113 c-1 -119 10
-112 -169 -111 -219 1 -299 3 -267 8 l28 4 -1 87 c-2 120 3 126 9 12 l6 -95
188 -3 189 -3 -2 48 c-2 26 -2 73 -1 103 2 86 21 40 20 -50z m-210 -25 c-6
-56 -6 -54 -7 30 0 55 3 78 7 60 4 -16 4 -57 0 -90z m400 53 c-2 -104 -17
-126 -18 -25 -1 52 3 87 9 87 6 0 10 -27 9 -62z m190 -25 c-1 -51 -4 -76 -8
-59 -6 29 -3 146 5 146 2 0 3 -39 3 -87z m-966 24 c2 -26 0 -50 -5 -53 -4 -3
-8 21 -8 52 0 68 7 68 13 1z m-1553 -56 c0 -21 -85 -132 -195 -254 -127 -140
-1155 -1174 -1260 -1267 -35 -30 -133 -134 -219 -230 -137 -155 -233 -250
-250 -250 -24 0 57 167 125 258 49 65 1653 1679 1713 1723 37 28 86 39 86 20z
m4010 -35 c0 -3 -4 -8 -10 -11 -5 -3 -10 -1 -10 4 0 6 5 11 10 11 6 0 10 -2
10 -4z m-1748 -37 c8 -5 -15 -9 -55 -9 -44 0 -66 4 -62 10 7 12 98 11 117 -1z
m341 4 c-7 -2 -19 -2 -25 0 -7 3 -2 5 12 5 14 0 19 -2 13 -5z m64 1 c-3 -3
-12 -4 -19 -1 -8 3 -5 6 6 6 11 1 17 -2 13 -5z m-1009 -11 c-10 -2 -26 -2 -35
0 -10 3 -2 5 17 5 19 0 27 -2 18 -5z m670 0 c-10 -2 -26 -2 -35 0 -10 3 -2 5
17 5 19 0 27 -2 18 -5z m1618 -14 c1 -5 2 -14 3 -20 0 -5 6 -7 11 -4 6 4 8 10
5 15 -3 5 -2 11 3 14 4 2 8 -5 8 -17 0 -18 -6 -22 -33 -24 -35 -2 -40 6 -22
39 10 19 22 17 25 -3z m-3578 -5 c55 -38 68 -123 26 -173 -84 -100 -250 11
-188 126 10 19 29 41 43 48 35 19 92 19 119 -1z m1373 -81 c-1 -37 -6 -72 -11
-77 -12 -12 -13 7 -4 93 9 80 17 70 15 -16z m199 -3 c0 -38 -4 -72 -10 -75 -6
-4 -10 23 -10 75 0 52 4 79 10 75 6 -3 10 -37 10 -75z m200 27 c0 -58 -11
-117 -21 -117 -10 0 -12 113 -3 147 10 35 24 16 24 -30z m190 -16 c0 -39 -4
-73 -10 -76 -6 -4 -10 22 -10 69 0 44 4 76 10 76 6 0 10 -30 10 -69z m190 -5
c0 -41 -4 -78 -10 -81 -6 -4 -10 23 -10 74 0 47 4 81 10 81 6 0 10 -31 10 -74z
m-965 -10 c1 -31 -1 -59 -6 -62 -5 -3 -9 25 -9 62 0 80 11 80 15 0z m-360 12
c-53 -55 -67 -67 -84 -68 -14 0 30 46 84 88 44 33 44 27 0 -20z m2699 26 c3
-8 2 -13 -2 -10 -4 2 -14 1 -22 -4 -12 -7 -12 -12 -2 -22 20 -20 14 -30 -6
-10 -18 17 -18 18 1 40 24 26 23 26 31 6z m-2181 -141 c-7 -2 -19 -2 -25 0 -7
3 -2 5 12 5 14 0 19 -2 13 -5z m124 1 c-3 -3 -12 -4 -19 -1 -8 3 -5 6 6 6 11
1 17 -2 13 -5z m79 -3 c-3 -5 -15 -7 -26 -4 -28 7 -25 13 6 13 14 0 23 -4 20
-9z m1995 -8 c13 -16 12 -17 -3 -4 -10 7 -18 15 -18 17 0 8 8 3 21 -13z
m-3791 -54 c-27 -31 -48 -48 -57 -45 -8 3 -12 2 -9 -3 9 -13 -488 -503 -570
-562 -38 -28 -85 -65 -104 -82 -19 -18 -66 -59 -103 -91 -37 -33 -81 -76 -98
-97 l-30 -38 55 6 c30 3 68 1 87 -6 32 -11 35 -9 148 77 256 193 487 318 776
418 416 144 903 181 1369 104 134 -23 414 -98 522 -141 247 -97 600 -317 799
-496 99 -90 220 -216 286 -299 13 -17 52 -65 87 -108 61 -77 73 -98 50 -94 -7
2 -13 -1 -13 -7 -1 -5 -6 -20 -11 -31 -8 -20 -20 -10 -129 111 -66 73 -145
162 -175 197 -67 78 -233 225 -355 313 -106 78 -316 203 -419 250 -213 99
-492 180 -721 210 -230 30 -648 23 -885 -17 -201 -33 -463 -122 -683 -233
-270 -137 -468 -284 -680 -507 -146 -154 -196 -216 -304 -379 -235 -351 -357
-610 -433 -914 -61 -243 -72 -319 -77 -557 -8 -348 13 -517 102 -830 60 -207
121 -363 207 -528 195 -375 456 -678 773 -897 303 -209 637 -362 965 -442 246
-61 290 -66 615 -65 280 0 310 2 447 27 310 56 611 167 878 325 47 28 87 49
88 47 15 -14 -21 -51 -86 -88 -334 -192 -586 -281 -972 -342 -149 -24 -142
-33 10 -14 116 14 397 79 455 104 17 8 64 23 105 35 41 12 82 25 90 29 8 5 24
5 35 1 11 -4 28 -4 37 1 10 5 19 5 22 0 9 -14 -176 -87 -344 -135 -183 -53
-408 -93 -612 -107 -331 -25 -763 43 -1108 173 -141 53 -360 160 -338 166 10
2 32 -4 50 -12 35 -18 52 -14 18 4 -36 19 -15 22 23 4 20 -10 34 -21 31 -26
-3 -4 -11 -5 -17 -1 -7 3 -4 -3 6 -14 10 -12 30 -23 45 -26 15 -2 36 -8 47
-12 17 -8 18 -7 7 7 -12 15 -58 33 -75 29 -5 -1 -6 3 -3 8 4 5 49 -8 104 -31
252 -104 569 -187 792 -207 63 -6 194 -10 290 -9 l175 1 -220 8 c-252 8 -376
24 -595 79 -225 56 -372 110 -576 210 -278 137 -559 337 -760 542 -99 100
-304 368 -374 486 -23 40 -44 71 -46 69 -8 -8 52 -117 100 -179 71 -94 110
-148 132 -183 18 -29 18 -30 0 -15 -18 14 -19 14 -7 -8 11 -21 11 -23 -6 -20
-18 3 -171 217 -243 338 -110 187 -239 527 -295 776 -51 225 -67 381 -68 624
-1 301 29 521 109 800 73 252 224 572 390 823 101 154 104 159 100 207 -2 27
0 51 3 52 9 4 51 91 51 106 0 6 5 12 10 12 6 0 10 10 10 23 0 12 7 33 16 45
35 51 2 29 -69 -45 -93 -96 -117 -124 -214 -240 -59 -71 -80 -90 -90 -81 -7 6
-13 16 -12 22 0 7 2 6 6 -1 9 -24 25 -13 19 13 -5 18 -3 24 5 18 8 -4 9 -3 5
5 -9 14 12 49 55 94 17 17 69 75 117 129 48 54 152 158 232 231 80 73 179 164
220 202 42 39 105 96 140 129 36 32 119 111 185 175 66 64 180 172 254 241 74
69 152 142 173 163 39 38 58 46 58 25 0 -8 6 -6 17 5 33 33 25 17 -17 -34z
m1434 35 c3 -8 2 -12 -4 -9 -6 3 -10 10 -10 16 0 14 7 11 14 -7z m186 -64 c0
-47 -4 -80 -10 -80 -5 0 -10 15 -10 34 0 40 11 126 16 126 2 0 4 -36 4 -80z
m191 -12 c-1 -40 -4 -75 -7 -77 -12 -13 -16 16 -9 84 9 95 19 90 16 -7z m199
5 c0 -42 -2 -74 -5 -72 -7 8 -14 137 -7 143 11 12 12 5 12 -71z m190 2 c0 -43
-4 -75 -10 -75 -11 0 -14 133 -3 143 12 13 13 7 13 -68z m1570 11 c0 -2 -8
-10 -17 -17 -16 -13 -17 -12 -4 4 13 16 21 21 21 13z m-5466 -90 c54 -22 89
-78 94 -147 4 -59 4 -60 -38 -100 -51 -48 -82 -61 -125 -53 -111 20 -166 141
-107 232 23 35 91 82 119 82 13 0 39 -6 57 -14z m2885 -2 c2 -2 -10 -4 -27 -4
-18 0 -32 5 -32 10 0 9 47 4 59 -6z m-1134 -144 c-27 -12 -43 -12 -25 0 8 5
22 9 30 9 10 0 8 -3 -5 -9z m4120 -114 c11 -8 15 -16 9 -16 -6 0 -24 12 -40
26 -30 26 -7 19 31 -10z m570 -22 c-7 -15 -11 -32 -9 -38 3 -7 -166 -185 -374
-397 -382 -387 -630 -627 -598 -577 10 15 15 31 12 36 -3 6 7 35 23 66 19 38
68 97 152 182 182 185 557 557 568 563 5 3 48 42 96 86 49 44 91 79 94 79 3
-1 15 5 26 12 26 18 26 18 10 -12z m33 -206 c-2 -6 -15 -25 -30 -41 -16 -17
-28 -33 -29 -36 -5 -38 -19 -69 -19 -41 0 8 -15 -1 -35 -20 -19 -18 -32 -37
-29 -42 6 -9 -947 -965 -1015 -1018 -42 -33 -43 -33 -26 -7 19 29 15 33 -17
16 -44 -24 25 53 247 274 380 380 609 604 935 913 18 17 21 17 18 2z m-3399
-37 c258 -44 447 -103 646 -200 330 -162 648 -411 849 -666 l56 -70 -38 -11
c-20 -7 -77 -24 -127 -39 l-90 -28 -175 -172 c-96 -95 -185 -177 -197 -184
-20 -10 -23 -7 -46 42 -71 153 -285 346 -528 476 -193 103 -361 148 -655 176
-101 9 -326 -13 -451 -46 -257 -66 -431 -148 -594 -281 l-114 -93 65 -68 c57
-60 67 -66 80 -53 44 44 257 184 335 222 112 53 259 97 401 119 123 20 315 16
439 -9 115 -23 285 -75 355 -109 78 -38 243 -144 285 -184 17 -15 57 -50 90
-77 85 -70 186 -179 180 -195 -3 -8 0 -11 9 -8 10 4 13 1 10 -7 -3 -8 0 -17 5
-21 6 -3 8 -11 5 -17 -4 -6 -10 -5 -16 3 -8 11 -9 11 -5 -1 2 -8 10 -16 18
-16 8 -1 18 -2 23 -3 5 0 3 -8 -4 -16 -11 -13 -10 -14 3 -10 10 4 18 -1 23
-17 13 -38 13 -48 1 -42 -8 4 -7 2 1 -7 10 -11 17 -9 39 15 16 17 29 24 31 18
2 -7 9 -9 15 -6 7 4 -7 -13 -31 -36 -23 -24 -44 -41 -45 -39 -108 179 -256
347 -424 481 -45 36 -80 68 -77 71 3 2 -2 7 -11 11 -9 3 -14 2 -11 -3 3 -5
-32 11 -78 35 -194 101 -409 149 -666 148 -152 0 -175 -3 -291 -32 -202 -51
-337 -114 -478 -221 -43 -33 -91 -75 -108 -94 l-31 -35 -57 51 c-189 173 -556
559 -583 615 l-22 47 33 30 c216 194 538 376 852 481 250 83 403 104 735 99
192 -2 272 -8 369 -24z m2416 -46 c0 -17 7 -20 48 -19 l47 1 -50 -48 -51 -48
-39 38 c-22 21 -40 43 -40 49 0 10 29 26 43 24 4 -1 6 1 6 6 -3 18 2 23 19 20
9 -2 17 -12 17 -23z m870 -84 c-3 -6 -11 -11 -17 -11 -6 0 -6 6 2 15 14 17 26
13 15 -4z m-1096 -30 c45 -24 102 -85 132 -142 38 -76 8 -186 -74 -270 -54
-55 -92 -72 -158 -72 -98 0 -174 58 -209 158 -47 137 -2 267 115 328 43 23
146 22 194 -2z m-472 -192 c-7 -18 -16 -29 -19 -24 -4 6 1 26 9 45 19 44 29
24 10 -21z m1659 -26 c-4 -9 -1 -21 6 -26 10 -6 9 -7 -4 -4 -9 3 -24 -3 -34
-14 -19 -21 -6 -26 16 -6 8 6 -1 -6 -20 -28 -57 -64 -1261 -1273 -1312 -1316
l-47 -40 4 28 c1 15 8 27 15 25 6 -1 9 2 6 7 -3 5 49 67 115 137 132 140 1248
1254 1256 1254 3 0 2 -8 -1 -17z m172 -51 c-30 -33 -31 -34 -6 -19 34 21 33
21 35 -5 2 -21 -30 -62 -40 -52 -2 2 -10 -3 -18 -13 -12 -15 -12 -16 1 -8 8 4
4 -4 -9 -18 -14 -15 -30 -27 -37 -27 -6 0 -18 -8 -25 -17 -10 -11 -10 -14 -1
-9 34 20 0 -21 -116 -140 -224 -231 -1046 -1040 -1070 -1053 -12 -6 -51 -13
-86 -15 l-64 -4 34 30 c19 17 38 26 45 22 7 -4 9 -3 6 2 -3 5 207 219 466 474
260 256 569 561 687 680 118 118 219 213 223 211 5 -2 -6 -19 -25 -39z m-402
-24 c-14 -21 -741 -753 -880 -887 -31 -30 -54 -47 -50 -38 7 20 -6 22 -26 5
-8 -7 67 73 167 177 227 238 691 690 708 690 8 0 17 4 22 9 5 5 2 6 -7 1 -8
-4 -2 6 14 23 16 17 33 29 37 26 4 -2 10 0 14 6 3 5 8 10 11 10 3 0 -2 -10
-10 -22z m550 -137 c0 -10 -6 -17 -12 -14 -7 2 -15 0 -19 -6 -3 -6 -1 -11 5
-11 11 0 0 -27 -24 -58 -32 -43 -1254 -1262 -1264 -1262 -7 0 -12 14 -12 32 0
28 30 61 259 292 143 144 348 349 458 456 109 107 271 267 361 355 146 143
198 190 178 156 -5 -7 -1 -9 9 -4 12 4 13 8 4 13 -10 7 11 33 56 70 1 0 1 -8
1 -19z m-5735 -322 c68 -61 207 -192 309 -290 102 -97 197 -187 213 -199 31
-24 33 -35 12 -56 -13 -14 -15 -14 -15 0 0 9 -4 16 -9 16 -4 0 -29 16 -55 36
-26 20 -49 34 -50 32 -49 -62 -134 -217 -176 -318 -38 -91 -100 -311 -100
-355 0 -32 29 -86 30 -55 0 9 -5 21 -10 26 -12 12 5 143 21 159 5 5 9 5 9 1 0
-5 7 -3 15 4 8 7 15 9 15 4 0 -5 5 -2 10 6 9 13 11 13 20 0 8 -13 10 -12 10 3
0 10 5 15 10 12 10 -6 42 54 39 72 -3 19 2 34 9 29 5 -3 19 15 31 39 20 41 53
79 38 44 -82 -188 -104 -262 -138 -471 l-23 -137 -22 53 c-29 71 -89 164 -133
204 -51 47 -146 98 -217 116 -241 62 -463 -64 -603 -341 -17 -35 -34 -63 -37
-63 -9 0 4 111 27 250 52 310 177 630 354 915 71 114 266 374 281 375 6 0 67
-50 135 -111z m5663 -12 c-21 -23 -200 -204 -398 -403 -199 -198 -457 -458
-575 -577 -117 -119 -218 -217 -223 -217 -5 0 -7 4 -4 8 3 5 -1 9 -9 9 -8 0
-12 -4 -9 -9 3 -4 0 -8 -5 -8 -52 0 55 127 365 435 648 644 817 805 843 805 6
0 11 5 11 10 0 7 7 7 21 0 19 -11 19 -13 -17 -53z m-2235 -184 c-84 -90 -129
-135 -129 -127 0 18 150 177 158 169 3 -3 -10 -22 -29 -42z m306 7 c-16 -18
-16 -20 -2 -20 9 0 21 -9 27 -21 7 -11 14 -18 17 -15 3 3 1 12 -6 19 -15 19 8
40 29 27 10 -6 22 -2 37 12 13 12 23 17 23 11 0 -12 -364 -382 -515 -523 -55
-52 -137 -129 -181 -172 -59 -56 -84 -74 -88 -63 -3 8 -2 14 2 14 20 -3 33 2
27 11 -3 6 -2 10 3 10 5 0 17 12 27 26 14 21 14 28 3 42 -11 15 -11 15 3 4 21
-16 54 -5 39 13 -6 7 -7 21 -3 30 5 14 3 16 -8 10 -12 -8 -12 -6 0 9 11 13 16
14 22 4 6 -9 9 -7 9 8 0 14 28 46 78 91 148 135 134 120 361 376 57 64 106
117 109 117 3 0 -3 -9 -13 -20z m2010 -19 c-3 -6 -11 -11 -16 -11 -5 0 -4 6 3
14 14 16 24 13 13 -3z m-6836 -48 c-217 -235 -755 -753 -781 -753 -16 0 -7 27
20 63 27 35 180 184 522 507 203 192 236 220 258 220 11 0 6 -10 -19 -37z
m2896 16 c136 -19 239 -45 300 -74 l30 -14 -29 6 c-16 3 -27 2 -23 -3 3 -5 -1
-17 -8 -27 -12 -17 -16 -17 -67 -2 -150 45 -400 58 -559 30 -153 -26 -342
-104 -446 -182 -37 -27 -45 -21 -10 8 l22 20 -22 -11 c-12 -6 -35 -9 -50 -8
-36 2 -54 -8 -46 -27 3 -8 1 -15 -5 -15 -5 0 -12 6 -15 14 -7 18 49 61 56 43
3 -6 6 -3 7 8 l1 20 15 -20 c15 -19 15 -19 10 7 -5 31 20 51 162 122 104 52
227 91 352 111 119 18 166 18 325 -6z m3890 -9 c3 -6 -1 -7 -9 -4 -18 7 -21
14 -7 14 6 0 13 -4 16 -10z m-50 -22 c-25 -15 -45 -19 -45 -8 0 5 10 11 23 13
39 8 42 7 22 -5z m-2047 -331 c-185 -182 -344 -344 -353 -359 -24 -39 -39 -35
-19 5 22 44 674 687 697 687 6 0 -140 -150 -325 -333z m2017 297 c14 -6 14 -8
-1 -25 -9 -11 -27 -19 -38 -19 -16 0 -18 -3 -7 -9 9 -6 10 -11 2 -15 -6 -4
-15 -4 -21 -1 -6 3 -7 -1 -4 -9 8 -22 -57 -90 -69 -73 -6 8 -7 7 -3 -5 3 -12
-118 -141 -448 -473 -366 -370 -456 -455 -471 -449 -13 5 -16 4 -11 -4 10 -17
-2 -15 -20 2 -17 18 -18 26 -1 22 6 -1 9 -1 4 1 -4 3 -5 9 -1 14 11 18 -11 8
-38 -18 -15 -15 -28 -22 -28 -17 0 17 66 75 75 67 4 -5 4 -2 0 6 -6 11 107
129 435 452 244 241 448 435 453 432 6 -3 7 -2 4 4 -8 13 58 77 71 69 6 -3 14
-1 18 5 5 8 3 9 -6 4 -9 -5 -11 -4 -6 3 5 9 13 9 27 2 18 -10 23 -6 20 14 -4
20 33 31 64 20z m-3445 -34 c8 -5 11 -10 5 -10 -5 0 -17 5 -25 10 -8 5 -10 10
-5 10 6 0 17 -5 25 -10z m1906 -54 c-20 -24 -153 -157 -296 -296 -143 -139
-270 -266 -282 -282 l-21 -30 402 4 401 5 -7 -36 c-5 -20 -7 -197 -5 -393 4
-430 -16 -896 -37 -884 -3 2 -7 -14 -8 -36 0 -22 -7 -45 -14 -52 -9 -8 -10 -8
-5 2 4 6 2 12 -4 12 -6 0 -11 10 -10 23 1 12 2 33 1 47 l-2 25 -13 -25 c-7
-14 -25 -82 -40 -152 -15 -70 -36 -149 -46 -175 -23 -58 -25 -49 -5 20 32 113
66 348 76 522 5 102 6 350 3 573 l-7 394 -26 10 c-16 6 -219 9 -526 9 -275 0
-518 4 -540 8 -34 7 -35 9 -12 10 20 1 31 7 34 21 3 11 10 20 15 20 5 0 7 4 3
9 -9 16 36 25 121 26 79 0 114 12 114 38 0 5 -9 2 -20 -8 -11 -10 -20 -16 -20
-13 0 2 14 17 32 34 17 16 27 23 23 15 -5 -10 -4 -12 4 -7 6 4 9 11 6 16 -9
14 484 500 506 500 6 0 8 4 5 9 -3 5 3 11 14 14 42 11 -2 -37 -338 -367 -100
-98 -192 -191 -203 -207 l-20 -29 47 0 c44 0 49 3 93 53 25 28 82 87 126 130
44 43 145 142 225 220 133 130 280 267 288 267 2 0 -13 -20 -32 -44z m-5622
13 c44 -34 33 -89 -25 -120 -42 -22 -99 17 -99 67 0 37 37 74 75 74 12 0 34
-9 49 -21z m481 -51 c-18 -36 -358 -375 -518 -516 -212 -187 -219 -194 -230
-183 -14 14 16 51 120 151 48 47 156 150 238 230 83 80 168 160 190 178 22 19
64 55 94 81 30 25 58 45 62 44 4 -2 18 10 31 26 29 36 34 32 13 -11z m1990
-87 c3 -5 2 -12 -3 -15 -5 -3 -9 1 -9 9 0 17 3 19 12 6z m-77 -51 c-1 -17 -10
-38 -20 -47 -10 -9 -18 -21 -18 -27 0 -6 7 -3 14 6 7 10 17 14 21 10 5 -4 5
-2 1 5 -3 6 -2 14 4 18 6 4 7 11 4 17 -4 6 2 8 17 4 24 -7 24 -7 4 9 -19 16
-19 16 8 10 15 -4 27 -3 27 2 0 5 6 10 14 10 8 0 -22 -36 -66 -79 -60 -59 -84
-76 -93 -68 -9 8 -14 6 -19 -5 -3 -9 -11 -13 -17 -9 -9 5 -10 -3 -6 -31 6 -34
5 -36 -8 -19 -7 10 -11 22 -9 26 3 5 2 8 -2 8 -11 0 -44 -32 -44 -42 0 -5 -9
-18 -20 -30 -27 -30 -25 -16 5 32 46 73 184 230 202 230 2 0 2 -14 1 -30z
m3152 -9 c0 -5 -32 -40 -71 -77 -39 -38 -121 -124 -181 -191 -61 -68 -115
-123 -120 -123 -31 0 123 177 277 317 98 89 95 87 95 74z m-2155 -41 c87 -23
238 -91 313 -141 26 -18 108 -95 184 -171 75 -76 144 -138 153 -138 9 0 14 -4
11 -9 -3 -5 13 -12 37 -17 39 -8 37 -9 -38 -12 -124 -5 -158 3 -179 41 -10 18
-39 54 -65 81 -34 35 -39 45 -21 36 25 -13 25 -13 7 8 -11 12 -25 18 -35 15
-10 -4 -13 -2 -8 5 4 7 2 12 -5 12 -7 0 -39 21 -71 46 -66 51 -168 101 -278
135 -63 20 -97 24 -210 24 -149 0 -205 -13 -345 -80 -109 -52 -256 -191 -329
-311 -147 -241 -164 -541 -45 -784 37 -74 57 -100 164 -205 69 -68 147 -135
181 -154 64 -37 124 -94 124 -116 0 -9 6 -12 15 -9 8 4 15 1 15 -4 0 -14 58
-43 65 -32 4 7 28 10 110 12 17 0 71 -3 120 -8 68 -6 83 -10 60 -15 l-30 -7
28 -1 c15 0 27 -5 27 -11 0 -5 8 -9 18 -8 9 1 28 0 42 -1 l25 -3 -25 -9 c-18
-6 -8 -8 35 -5 l60 4 -43 -13 c-76 -25 -226 -29 -325 -11 -146 28 -305 93
-400 165 -180 135 -280 247 -347 385 -69 142 -84 216 -84 406 l-1 165 43 120
c64 181 108 252 232 375 145 145 283 220 465 256 92 18 247 11 350 -16z m2295
15 c-7 -9 -19 -14 -26 -11 -8 3 -11 0 -8 -8 3 -8 -27 -44 -73 -85 -43 -40
-107 -107 -143 -151 -71 -86 -101 -110 -74 -58 14 27 77 97 244 269 25 26 54
49 65 52 11 2 22 5 24 6 2 0 -2 -6 -9 -14z m1990 -50 c-7 -8 -9 -15 -5 -15 4
0 2 -7 -5 -15 -7 -8 -16 -13 -20 -10 -4 3 -7 -2 -6 -9 2 -22 -304 -341 -1049
-1095 -232 -234 -429 -421 -445 -421 -3 0 -6 9 -6 20 0 11 5 20 10 20 5 0 1 9
-9 20 -19 21 -14 25 435 473 249 249 498 493 553 542 55 50 172 158 261 240
248 231 329 302 286 250z m-2984 -147 c4 -7 3 -10 -1 -5 -5 4 -18 -1 -29 -10
-21 -18 -21 -18 -2 5 22 26 23 26 32 10z m-85 -68 c-18 -17 -36 -30 -40 -30
-7 1 61 60 69 60 3 0 -10 -14 -29 -30z m-2461 12 c0 -5 -7 -17 -15 -28 -14
-18 -14 -17 -4 9 12 27 19 34 19 19z m1184 -102 c80 -20 170 -63 221 -105 l30
-24 -82 -1 c-45 0 -108 7 -140 15 -225 60 -424 -6 -543 -180 -71 -104 -94
-253 -62 -397 42 -190 39 -221 -16 -150 -22 28 -22 32 -6 26 16 -6 17 -5 7 7
-7 7 -13 25 -13 41 0 15 -6 31 -14 35 -7 4 -18 22 -25 38 l-11 30 4 -28 c2
-15 -1 -30 -7 -34 -5 -3 -7 -1 -3 5 3 6 2 13 -3 16 -16 10 -34 137 -28 205 7
88 49 215 92 276 l34 50 -39 19 c-46 23 -59 51 -36 74 23 23 67 5 87 -35 l16
-31 42 33 c158 125 314 161 495 115z m-1307 -202 c-3 -8 -6 -5 -6 6 -1 11 2
17 5 13 3 -3 4 -12 1 -19z m-716 2 c10 0 33 -12 49 -27 39 -35 50 -95 27 -140
-19 -35 -91 -103 -111 -103 -19 0 -90 59 -110 92 -25 41 -21 101 10 137 25 31
77 53 102 45 8 -2 22 -4 33 -4z m674 -191 c-8 -42 -15 -124 -15 -188 0 -63 -3
-111 -7 -108 -16 17 -1 267 23 367 14 58 13 -4 -1 -71z m59 -30 c-20 -144 -7
-343 33 -509 3 -14 3 -22 -1 -19 -7 7 -46 150 -53 194 -5 35 -3 261 2 306 7
51 28 150 31 146 2 -2 -3 -55 -12 -118z m-1982 64 c9 -16 57 -70 107 -122 67
-69 91 -101 91 -120 0 -14 3 -77 7 -138 8 -141 8 -141 -129 -40 -75 54 -118
114 -119 168 l0 34 -16 -40 c-30 -73 -82 -142 -174 -225 -50 -46 -109 -109
-132 -139 -71 -96 -98 -121 -133 -121 -17 0 -46 -6 -64 -14 l-33 -13 59 -7
c88 -11 88 -11 161 -99 37 -45 102 -116 144 -157 76 -75 130 -146 143 -187 4
-11 13 -27 21 -33 12 -10 16 -8 24 12 15 41 61 87 145 149 51 38 90 59 107 59
15 0 35 7 43 16 15 14 17 13 26 -12 8 -21 7 -32 -6 -53 -21 -33 -128 -134
-174 -165 -19 -13 -44 -34 -55 -46 l-20 -23 30 7 c69 17 90 16 114 -2 l23 -19
-106 -91 c-59 -51 -111 -92 -116 -92 -5 0 -25 24 -44 53 -32 48 -155 172 -554
561 l-153 150 33 25 c52 41 291 265 406 381 115 116 231 250 281 323 17 26 35
47 39 47 4 0 15 -12 24 -27z m5429 -235 c1 -139 1 -404 0 -588 -3 -369 -10
-434 -60 -512 -32 -50 -90 -118 -100 -118 -17 0 8 91 47 168 38 77 41 88 39
157 l-1 73 -21 -33 c-11 -18 -32 -48 -46 -67 -15 -18 -36 -63 -48 -100 -30
-89 -48 -111 -110 -127 -28 -7 -54 -17 -57 -22 -3 -5 -33 -23 -67 -41 -82 -41
-162 -48 -234 -20 -29 11 -53 17 -53 12 0 -12 -44 -20 -51 -9 -3 6 -9 -4 -13
-23 l-7 -33 -57 60 c-69 74 -96 126 -118 230 -10 49 -25 88 -37 100 -14 14
-18 15 -15 5 3 -9 0 -24 -8 -35 -34 -46 -5 -140 52 -176 19 -11 43 -38 54 -58
22 -44 79 -108 215 -246 56 -55 107 -115 114 -133 15 -37 18 -38 50 -15 25 17
71 26 71 14 0 -12 -72 -101 -81 -101 -4 0 -16 13 -25 30 -10 16 -47 54 -83 84
-120 100 -394 397 -417 452 -10 24 -14 79 -14 186 0 84 -1 167 -1 183 -1 17 2
43 6 58 l8 29 -558 -4 -558 -3 -66 68 c-76 79 -154 200 -176 272 -19 67 -38
259 -30 316 5 34 22 69 61 125 l55 79 102 6 c56 3 582 6 1170 7 l1067 2 1
-252z m1060 159 c51 -34 51 -74 0 -140 -56 -72 -399 -408 -377 -369 4 7 3 18
-3 25 -6 8 -6 18 -1 27 5 8 5 19 0 25 -4 5 -10 25 -11 42 -3 28 7 46 76 130
94 116 254 283 270 283 7 0 27 -10 46 -23z m-5435 -46 c35 -22 68 -83 59 -111
-3 -11 -23 -33 -43 -50 -32 -26 -44 -30 -99 -30 -74 0 -104 12 -126 50 -33 54
-10 127 47 150 39 16 129 11 162 -9z m508 -12 c33 -39 35 -95 4 -135 -32 -42
-36 -44 -111 -44 -77 0 -115 15 -146 59 -26 37 -26 52 1 86 38 49 76 65 155
65 67 0 73 -2 97 -31z m383 -151 c-2 -13 -4 -3 -4 22 0 25 2 35 4 23 2 -13 2
-33 0 -45z m-696 -41 c82 -55 107 -161 51 -217 -65 -64 -168 -57 -197 14 -32
75 -14 141 52 195 45 37 50 38 94 8z m-501 -64 c80 -151 190 -259 305 -302
226 -85 472 28 596 275 18 35 36 64 40 64 4 0 13 -33 19 -72 44 -269 78 -382
162 -547 108 -211 247 -375 432 -511 127 -93 215 -140 354 -190 476 -169 992
-88 1374 218 50 40 95 71 99 70 12 -4 609 -619 609 -627 0 -4 -47 -52 -105
-106 -227 -211 -470 -356 -757 -455 -172 -59 -238 -74 -448 -101 -336 -44
-680 -18 -959 73 -147 47 -363 132 -407 159 -17 10 -59 33 -95 52 -213 110
-426 266 -499 363 -17 23 64 -50 98 -89 13 -15 28 -25 32 -22 5 3 20 -6 34
-20 16 -16 31 -23 42 -18 13 5 15 3 9 -8 -6 -11 -5 -12 6 -1 16 14 33 16 24 2
-9 -14 8 -12 24 3 11 10 12 9 6 -2 -5 -9 -4 -12 2 -8 6 4 85 -37 175 -91 272
-162 651 -294 908 -315 77 -7 66 -4 -100 28 -69 13 -177 40 -240 59 -107 33
-148 48 -348 126 -167 66 -551 343 -705 510 -122 131 -266 365 -350 570 -101
243 -155 393 -192 524 -36 130 -64 198 -86 212 -8 5 -9 3 -4 -5 4 -7 9 -52 11
-99 2 -48 6 -116 9 -152 3 -36 7 -96 9 -135 l3 -70 -34 105 c-74 234 -128 590
-89 590 3 0 19 -26 36 -57z m1174 -29 c3 -8 2 -12 -4 -9 -6 3 -10 10 -10 16 0
14 7 11 14 -7z m32 -137 c9 -42 15 -80 12 -83 -6 -6 -49 163 -47 187 1 24 17
-23 35 -104z m11 81 c-3 -8 -6 -5 -6 6 -1 11 2 17 5 13 3 -3 4 -12 1 -19z m10
-40 c-3 -8 -6 -5 -6 6 -1 11 2 17 5 13 3 -3 4 -12 1 -19z m-1962 -64 c56 -26
105 -112 105 -184 0 -54 -47 -138 -90 -161 -47 -26 -133 -25 -174 1 -48 29
-80 94 -81 161 0 45 6 66 30 105 55 87 131 116 210 78z m2371 -589 c190 -163
391 -251 651 -286 158 -21 419 7 539 57 20 8 33 11 30 5 -4 -5 -27 -17 -52
-27 -31 -12 -43 -21 -39 -32 4 -10 0 -12 -12 -8 -17 7 -17 6 -2 -9 15 -15 21
-15 75 -1 101 26 70 9 -59 -33 -163 -53 -244 -65 -392 -58 -235 11 -478 93
-665 223 -89 62 -200 160 -200 177 0 5 10 -2 21 -17 12 -16 27 -25 36 -22 9 4
12 1 7 -7 -4 -6 -4 -9 1 -5 4 4 15 2 24 -4 15 -12 15 -11 0 7 -30 38 -34 48
-11 36 18 -10 19 -9 9 13 -7 14 -14 23 -17 21 -3 -2 -14 3 -25 11 -10 8 -13
14 -7 14 9 0 9 4 0 19 -7 11 -16 17 -22 14 -5 -3 -6 -1 -2 5 3 6 -4 19 -17 29
-22 17 -47 53 -47 68 0 3 26 -27 59 -67 32 -40 85 -96 117 -123z m-205 118
c13 -16 12 -17 -3 -4 -17 13 -22 21 -14 21 2 0 10 -8 17 -17z m4142 -61 c136
-67 225 -195 230 -329 l2 -68 -48 -5 c-52 -7 -48 -11 -62 75 -15 92 -81 186
-159 228 -34 18 -58 22 -136 22 -84 0 -101 -3 -147 -27 -31 -16 -50 -21 -47
-13 3 7 -2 30 -11 51 -19 47 -11 58 67 85 41 15 74 19 149 16 84 -2 103 -6
162 -35z m-4075 -37 c-3 -3 -9 2 -12 12 -6 14 -5 15 5 6 7 -7 10 -15 7 -18z
m3980 -205 c68 -42 89 -119 54 -209 -32 -83 -111 -111 -191 -69 -86 44 -110
148 -56 230 16 24 36 49 44 56 24 19 111 15 149 -8z m220 -261 c-5 -3 -8 -10
-7 -15 3 -14 -12 -45 -44 -91 -21 -30 -52 -54 -101 -80 -67 -36 -76 -38 -161
-38 -67 0 -98 5 -122 18 -71 38 -140 117 -157 177 -6 22 -5 21 10 -5 26 -46
93 -104 154 -133 66 -31 150 -34 231 -7 68 23 148 100 174 169 15 39 20 45 26
30 3 -11 2 -22 -3 -25z m-5983 -239 c-16 -31 -276 -296 -555 -566 -174 -168
-285 -267 -265 -235 6 11 4 13 -8 8 -32 -12 -25 10 20 69 57 72 712 735 768
776 l40 29 7 -27 c4 -17 2 -37 -7 -54z m915 -84 c0 -16 -58 45 -63 66 -4 13 6
7 28 -19 19 -21 34 -42 35 -47z m-854 -29 c-9 -36 -209 -248 -570 -606 -253
-249 -341 -330 -349 -322 -9 9 -8 17 1 32 11 17 11 20 0 13 -37 -23 68 89 557
592 312 321 341 348 353 331 8 -10 11 -28 8 -40z m537 -62 c10 -14 14 -25 10
-25 -4 0 -16 12 -26 25 -10 14 -14 25 -10 25 4 0 16 -12 26 -25z m4441 -5
c229 -58 408 -237 466 -466 11 -43 20 -96 20 -119 0 -41 0 -41 -32 -37 l-31 5
6 -39 c8 -45 -35 -181 -85 -277 -63 -117 -194 -223 -339 -272 -209 -71 -424
-11 -601 167 -58 59 -69 55 -14 -5 29 -31 33 -42 12 -34 -9 4 -13 0 -11 -11 2
-9 4 -19 4 -21 1 -3 7 3 14 13 12 17 16 15 58 -23 52 -47 48 -54 -6 -11 -20
16 -41 27 -46 24 -11 -6 8 -44 22 -44 6 0 7 6 3 13 -4 6 2 4 13 -6 11 -9 20
-24 20 -32 0 -40 -172 137 -210 217 -57 120 -77 200 -77 306 0 136 12 192 65
297 79 158 165 248 301 315 125 61 303 77 448 40z m-5790 -7 c45 -21 66 -65
66 -136 0 -72 -29 -117 -88 -136 -62 -19 -108 0 -139 58 -49 93 -23 188 58
217 47 17 63 17 103 -3z m928 -93 l27 -31 -68 -77 c-136 -153 -1361 -1380
-1416 -1417 -84 -58 -107 -55 -63 8 36 51 440 475 868 912 146 148 343 352
439 453 96 100 177 182 180 182 4 0 19 -14 33 -30z m523 -78 c-3 -3 -11 0 -18
7 -9 10 -8 11 6 5 10 -3 15 -9 12 -12z m268 -230 c31 -24 57 -45 57 -48 0 -9
-89 58 -171 129 -44 37 -79 71 -79 74 0 3 30 -21 68 -54 37 -32 93 -78 125
-101z m-644 113 c18 -26 22 -41 15 -55 -5 -10 -203 -218 -440 -462 -236 -244
-472 -489 -523 -545 -51 -57 -95 -103 -99 -103 -11 0 -62 53 -62 65 0 21 185
221 743 803 175 182 324 332 331 332 6 0 22 -16 35 -35z m572 -2 c13 -16 12
-17 -3 -4 -17 13 -22 21 -14 21 2 0 10 -8 17 -17z m-406 -161 c8 -7 15 -20 15
-28 0 -16 -169 -192 -704 -732 l-349 -354 -29 29 -29 30 39 49 c54 69 423 455
743 778 286 289 264 273 314 228z m870 -153 c58 -33 76 -51 24 -23 -48 24 -95
54 -86 54 4 0 32 -14 62 -31z m-701 -79 c16 -25 48 -68 72 -95 l42 -50 -301
-298 c-353 -348 -341 -337 -356 -337 -7 0 -10 -4 -6 -9 3 -5 1 -12 -4 -15 -5
-4 -12 -2 -16 4 -3 5 -11 10 -17 10 -7 0 -6 -6 2 -15 10 -12 9 -15 -4 -15 -10
0 -15 -4 -11 -9 9 -15 -15 -25 -28 -12 -9 9 -8 11 3 8 8 -2 12 -2 7 0 -4 3 -5
10 -1 16 3 7 -4 1 -15 -12 -12 -13 -21 -18 -21 -11 0 9 -7 7 -21 -6 -17 -15
-22 -16 -29 -4 -13 22 -49 22 -80 0 -36 -26 -46 -26 -20 0 11 11 25 20 30 20
6 0 10 5 10 12 0 6 8 21 17 32 10 12 -16 -10 -57 -49 -41 -38 -74 -75 -74 -82
1 -6 -4 -10 -10 -7 -15 5 -149 -122 -142 -135 4 -5 1 -13 -5 -17 -8 -4 -9 -3
-5 4 4 7 3 12 -1 12 -5 0 -14 -9 -20 -20 -11 -17 -10 -18 5 -13 16 6 16 5 0
-14 -10 -11 -18 -24 -18 -30 0 -6 -6 -14 -12 -16 -10 -4 -10 -8 0 -15 11 -7
10 -10 -3 -16 -9 -3 -21 -4 -26 0 -14 8 -11 -9 7 -35 16 -22 16 -23 -3 -12
-25 13 -74 68 -111 123 l-27 41 29 21 c63 45 149 129 620 609 268 274 497 504
508 511 17 12 22 11 41 -8 13 -11 35 -41 51 -66z m156 -81 c0 -5 -4 -9 -10 -9
-5 0 -10 7 -10 16 0 8 5 12 10 9 6 -3 10 -10 10 -16z m-134 -458 c-235 -235
-284 -280 -306 -278 -60 5 -37 37 179 248 326 320 321 315 347 289 7 -7 17 -5
30 5 10 8 21 15 24 15 3 0 -121 -126 -274 -279z m360 174 c4 -15 13 -25 24
-25 11 0 21 -4 24 -8 3 -5 -112 -125 -255 -268 -143 -142 -257 -251 -253 -241
3 9 10 17 15 17 5 0 9 4 9 10 0 5 -8 7 -17 4 -17 -5 -17 -5 -1 9 17 13 17 15
-4 33 -22 19 -22 19 -8 0 14 -18 14 -19 -7 -8 -14 8 -24 9 -28 2 -3 -5 -1 -10
5 -10 6 0 8 -5 4 -12 -6 -9 -9 -9 -12 0 -2 8 -20 0 -50 -24 -51 -40 -2 11 328
349 107 108 200 197 207 197 7 0 15 -11 19 -25z m2914 -110 c0 -3 -7 -16 -16
-30 -8 -13 -14 -30 -12 -38 4 -21 -217 -251 -659 -687 -415 -408 -444 -434
-455 -419 -8 11 -9 11 -5 -2 5 -16 -41 -67 -88 -98 -11 -8 -4 1 15 19 21 20
29 35 22 38 -7 2 -9 8 -6 14 4 7 9 6 14 -1 5 -9 11 -7 21 5 9 12 10 15 2 10
-31 -18 -8 16 45 66 92 90 504 509 816 831 256 264 306 312 306 292z m-2398
-67 c20 -7 -97 -130 -479 -504 -361 -355 -417 -407 -407 -380 3 9 1 16 -6 16
-6 0 -8 4 -5 10 3 6 -1 7 -9 4 -10 -4 -16 -1 -16 7 0 9 -3 10 -8 4 -16 -20
-135 -129 -121 -110 33 45 652 686 858 889 l120 118 30 -25 c17 -14 36 -27 43
-29z m3058 -10 c0 -14 -36 5 -54 28 l-18 26 36 -24 c20 -13 36 -26 36 -30z
m283 -25 c-7 -2 -21 -2 -30 0 -10 3 -4 5 12 5 17 0 24 -2 18 -5z m112 -23
c-16 -4 -68 -7 -115 -7 l-85 1 75 6 c41 4 93 7 115 7 38 1 38 0 10 -7z m-864
-78 c-5 -8 -42 -49 -82 -91 -41 -42 -107 -116 -147 -165 -64 -80 -72 -94 -72
-132 0 -60 -14 -91 -52 -114 -49 -30 -84 -26 -123 13 -86 86 -35 215 81 205
45 -3 48 -2 78 40 53 75 204 248 243 281 l38 30 22 -26 c14 -17 19 -32 14 -41z
m-1403 -37 c59 -48 154 -156 194 -221 4 -6 -50 -69 -137 -156 l-144 -145 -146
145 -145 144 18 32 c27 48 262 277 276 269 6 -5 44 -35 84 -68z m738 63 c4 -6
3 -8 -3 -5 -6 4 -16 0 -23 -8 -7 -8 -17 -15 -22 -15 -6 0 0 9 13 20 29 23 26
23 35 8z m-22 -43 c-4 -8 -2 -15 2 -16 5 0 19 -2 31 -3 13 -2 19 2 16 9 -4 12
31 27 41 18 8 -9 -56 -73 -67 -66 -6 3 -7 2 -4 -4 8 -12 -31 -45 -44 -37 -6 3
-9 0 -7 -8 3 -15 -173 -211 -228 -253 l-34 -26 -17 38 c-10 21 -22 41 -26 44
-5 3 -9 9 -10 12 -3 11 107 117 118 114 6 -1 10 1 10 5 0 14 69 77 78 71 6 -3
7 -2 4 4 -3 5 12 27 35 49 22 21 37 33 33 25 -5 -9 -4 -12 3 -7 7 4 12 14 12
22 0 8 5 14 10 14 16 0 11 -23 -12 -50 -14 -16 -22 -21 -25 -12 -3 6 -9 10
-13 7 -5 -3 -7 -12 -4 -19 3 -7 -2 -19 -11 -26 -8 -7 -15 -17 -15 -23 0 -6 7
-2 15 10 11 16 23 20 43 17 17 -3 22 -1 14 4 -16 11 -5 43 12 36 20 -8 41 23
27 40 -11 13 -10 16 16 25 1 1 0 -6 -3 -14z m-2374 -19 c0 -2 -8 -10 -17 -17
-16 -13 -17 -12 -4 4 13 16 21 21 21 13z m2355 -16 c-3 -5 -11 -10 -16 -10 -6
0 -7 5 -4 10 3 6 11 10 16 10 6 0 7 -4 4 -10z m-1432 -69 c29 -28 32 -81 7
-114 -57 -73 -163 13 -118 96 26 49 72 57 111 18z m-1762 -86 c-17 -20 -31
-39 -31 -43 0 -4 -10 -13 -22 -21 l-23 -14 20 24 c32 39 79 89 83 89 2 0 -10
-16 -27 -35z m-581 -395 c0 -5 -2 -10 -4 -10 -3 0 -8 5 -11 10 -3 6 -1 10 4
10 6 0 11 -4 11 -10z"/>
<path d="M7575 8240 c-77 -77 -137 -140 -133 -140 3 0 40 33 82 74 41 40 79
70 82 67 4 -3 4 -1 1 5 -7 11 19 29 36 25 5 -1 6 3 2 9 -3 5 13 30 36 55 78
85 34 45 -106 -95z"/>
<path d="M7711 8144 c0 -11 3 -14 6 -6 3 7 2 16 -1 19 -3 4 -6 -2 -5 -13z"/>
<path d="M4910 8496 c0 -2 7 -7 16 -10 8 -3 12 -2 9 4 -6 10 -25 14 -25 6z"/>
<path d="M7865 8500 c-3 -5 -1 -10 4 -10 6 0 11 5 11 10 0 6 -2 10 -4 10 -3 0
-8 -4 -11 -10z"/>
<path d="M4222 8454 c-24 -17 -30 -62 -10 -82 7 -7 27 -12 45 -12 27 0 35 5
43 26 7 17 6 32 -1 47 -21 40 -42 46 -77 21z"/>
<path d="M4022 8263 c-31 -34 -18 -44 13 -11 14 15 21 29 17 32 -4 2 -18 -7
-30 -21z"/>
<path d="M2268 8105 c-43 -29 -68 -71 -68 -113 0 -36 36 -91 72 -112 24 -13
32 -13 69 0 122 43 115 215 -11 245 -18 4 -36 -2 -62 -20z"/>
<path d="M5800 6505 c0 -2 15 -12 33 -20 l32 -16 -25 20 c-24 20 -40 26 -40
16z"/>
<path d="M6060 6307 c0 -4 17 -23 37 -42 20 -19 38 -42 39 -51 4 -23 13 -29
26 -16 9 9 9 12 -1 12 -7 0 -10 4 -7 8 3 5 -7 19 -22 32 -15 12 -37 32 -49 43
-13 11 -23 17 -23 14z"/>
<path d="M6170 6178 c0 -18 12 -32 29 -36 12 -3 12 -1 0 14 -8 9 -13 20 -11
23 2 3 -1 7 -7 9 -6 2 -11 -2 -11 -10z"/>
<path d="M7483 7371 c-49 -23 -92 -82 -100 -139 -10 -76 69 -172 142 -172 75
1 168 76 181 147 10 53 -34 137 -87 164 -48 24 -82 24 -136 0z m117 -16 c17
-9 30 -20 30 -26 0 -6 5 -7 10 -4 6 3 10 -1 10 -9 0 -9 -6 -16 -13 -16 -7 0
-46 -20 -87 -45 -40 -25 -79 -44 -86 -41 -6 2 -18 21 -24 42 -13 37 -12 38 28
76 46 42 82 49 132 23z"/>
<path d="M8979 7143 c-13 -15 -12 -15 9 -4 23 12 28 21 13 21 -5 0 -15 -7 -22
-17z"/>
<path d="M7670 6285 c-7 -9 -11 -18 -8 -20 3 -3 11 1 18 10 7 9 11 18 8 20 -3
3 -11 -1 -18 -10z"/>
<path d="M9056 6724 c-6 -15 -4 -15 11 -3 10 7 20 15 22 16 2 2 -3 3 -11 3 -9
0 -19 -7 -22 -16z"/>
<path d="M6580 5910 c0 -5 4 -10 9 -10 6 0 13 5 16 10 3 6 -1 10 -9 10 -9 0
-16 -4 -16 -10z"/>
<path d="M8980 6390 c-8 -5 -11 -12 -8 -16 4 -3 14 1 23 10 18 17 9 21 -15 6z"/>
<path d="M4195 6100 c-3 -5 -1 -10 4 -10 6 0 11 5 11 10 0 6 -2 10 -4 10 -3 0
-8 -4 -11 -10z"/>
<path d="M4186 6065 c-9 -26 -7 -32 5 -12 6 10 9 21 6 23 -2 3 -7 -2 -11 -11z"/>
<path d="M5004 4989 c-3 -6 -9 -39 -11 -73 -7 -82 3 -100 124 -226 l98 -102
360 3 c198 2 444 4 546 4 l186 0 45 41 c25 23 55 47 67 53 11 7 21 16 21 21 0
26 -122 32 -655 36 l-550 4 -62 92 c-95 139 -146 184 -169 147z"/>
<path d="M6679 4911 c-70 -44 -92 -87 -91 -177 1 -70 0 -74 -18 -64 -53 29
-154 -8 -201 -73 -42 -58 -53 -107 -40 -180 22 -124 73 -177 170 -177 31 1 67
7 81 15 36 21 43 18 24 -10 -23 -35 -22 -150 1 -199 54 -114 236 -129 329 -26
40 44 51 88 43 165 l-5 53 56 -5 c82 -7 154 32 200 107 41 68 43 131 8 207
-41 86 -149 148 -218 124 -17 -6 -32 -11 -34 -11 -2 0 -3 28 -2 63 3 126 -82
217 -205 217 -41 0 -63 -6 -98 -29z m173 -98 c59 -56 58 -131 -2 -173 -67 -48
-136 -31 -164 40 -26 65 4 140 64 163 27 11 74 -3 102 -30z m-276 -249 c94
-62 56 -234 -51 -234 -51 0 -105 75 -105 146 0 28 8 44 34 70 39 39 80 45 122
18z m548 -24 c31 -34 36 -47 36 -88 0 -86 -74 -136 -161 -108 -41 13 -79 74
-79 127 0 55 64 108 131 109 30 0 43 -7 73 -40z m-329 -14 l62 1 -11 -28 c-7
-20 -7 -44 0 -79 l11 -50 -51 0 c-32 0 -65 -7 -88 -20 l-37 -19 15 36 c16 38
16 140 -1 178 l-8 20 22 -20 c18 -16 37 -20 86 -19z m63 -282 c26 -27 32 -42
32 -76 0 -77 -63 -142 -125 -130 -70 13 -107 123 -65 190 23 37 74 64 105 56
11 -3 35 -21 53 -40z"/>
<path d="M6770 4725 c0 -23 18 -34 33 -19 7 7 -14 44 -25 44 -5 0 -8 -11 -8
-25z"/>
<path d="M6513 4463 c-22 -8 -14 -23 13 -23 15 0 24 5 22 12 -5 14 -18 18 -35
11z"/>
<path d="M7027 4464 c-11 -12 3 -24 29 -24 16 0 24 5 22 13 -5 13 -40 22 -51
11z"/>
<path d="M6770 4161 c0 -17 12 -41 21 -41 5 0 9 11 9 25 0 16 -6 25 -15 25 -8
0 -15 -4 -15 -9z"/>
<path d="M3235 4335 c-39 -20 -92 -102 -107 -166 -8 -35 -16 -48 -25 -45 -8 3
-16 -2 -19 -12 -4 -9 -12 -31 -20 -48 -12 -27 -11 -37 5 -82 11 -29 30 -69 43
-89 12 -21 32 -58 44 -83 23 -49 151 -219 218 -288 22 -24 73 -66 111 -95 39
-28 109 -81 156 -119 92 -72 253 -171 334 -205 28 -12 108 -46 179 -77 70 -31
154 -63 185 -71 31 -8 91 -26 133 -39 272 -89 771 -102 1040 -27 57 16 131 36
166 45 107 27 302 113 433 192 139 84 218 141 329 238 72 63 100 78 100 55 0
-6 -37 -47 -82 -92 -82 -81 -326 -255 -436 -311 -115 -58 -289 -120 -452 -161
-177 -45 -264 -54 -605 -68 -39 -2 -16 -4 51 -5 415 -7 847 104 1134 290 47
30 110 70 140 88 73 43 181 139 226 201 34 47 36 52 23 76 -8 14 -39 48 -71
75 -31 27 -69 67 -84 89 -14 21 -34 39 -43 39 -10 0 -22 5 -29 12 -9 9 -12 9
-12 0 0 -7 6 -12 13 -12 6 0 1 -9 -13 -19 -13 -11 -29 -17 -34 -14 -5 3 -6 1
-2 -5 4 -6 -18 -28 -51 -52 -121 -85 -295 -200 -304 -200 -5 0 -53 -20 -108
-44 -90 -41 -243 -95 -314 -110 -138 -31 -370 -56 -463 -51 -273 18 -539 72
-712 146 -93 39 -292 136 -292 142 0 1 9 3 19 3 11 0 17 -4 15 -8 -3 -4 4 -8
16 -8 18 0 14 6 -22 38 -24 21 -57 50 -74 65 -16 16 -49 37 -73 49 -62 28
-101 59 -101 78 0 25 -10 31 -33 18 -16 -8 -19 -8 -14 5 6 17 -15 41 -26 30
-4 -3 -7 1 -7 10 0 10 -4 17 -8 17 -5 0 -14 10 -20 23 -7 14 -11 17 -11 7 -1
-9 6 -27 15 -40 20 -32 -99 93 -137 144 -16 21 -29 44 -29 50 0 7 3 7 8 1 4
-5 16 -11 27 -13 18 -3 19 -3 3 10 -12 9 -19 35 -24 93 -4 44 -13 89 -20 100
-8 11 -14 38 -14 60 0 22 -7 49 -15 59 -8 11 -15 29 -15 40 -1 25 -16 46 -52
69 -35 22 -150 23 -193 2z m157 -77 c22 -13 46 -35 54 -50 15 -28 19 -61 6
-43 -4 6 -24 18 -44 27 -21 10 -38 22 -38 27 0 20 -60 20 -95 1 -53 -30 -40 7
15 44 33 22 55 20 102 -6z m158 -508 c72 -97 93 -130 82 -130 -5 0 -20 16 -33
35 -13 19 -28 35 -32 35 -5 0 -5 5 -1 12 4 7 3 8 -4 4 -7 -4 -27 8 -47 29 -20
19 -33 35 -30 35 4 0 0 7 -8 15 -9 8 -14 23 -12 32 2 10 4 23 5 28 1 12 6 5
80 -95z m110 -150 c0 -5 -2 -10 -4 -10 -3 0 -8 5 -11 10 -3 6 -1 10 4 10 6 0
11 -4 11 -10z m39 -54 c-3 -3 -11 5 -18 17 -13 21 -12 21 5 5 10 -10 16 -20
13 -22z m2711 3 c0 -5 -6 -6 -14 -3 -8 3 -30 -9 -50 -27 -52 -45 -56 -29 -6
20 34 32 46 39 56 30 8 -6 14 -15 14 -20z m-590 -349 c-19 -11 -39 -19 -45
-19 -5 0 6 8 25 19 19 11 40 19 45 19 6 0 -6 -8 -25 -19z m-265 -101 c-49 -20
-68 -36 -59 -50 5 -9 -83 -22 -96 -14 -5 3 -10 2 -10 -3 0 -5 -14 -9 -32 -10
-18 0 -42 -6 -55 -13 -22 -12 -22 -14 -6 -31 15 -17 15 -18 -6 -18 -12 0 -19
4 -16 10 8 13 -18 13 -31 0 -15 -15 -189 -32 -251 -25 -40 5 -61 14 -92 42
-23 19 -41 41 -41 48 0 8 -6 16 -12 19 -7 3 52 3 132 0 85 -3 189 -1 250 6
108 11 332 49 339 56 2 2 11 4 20 3 9 0 -6 -9 -34 -20z m-998 5 c-3 -3 -12 -4
-19 -1 -8 3 -5 6 6 6 11 1 17 -2 13 -5z m1020 -31 c-15 -2 -25 -8 -22 -13 3
-4 -6 -7 -19 -6 -43 2 -17 26 28 25 30 -2 34 -3 13 -6z m143 -13 c-8 -5 -22
-9 -30 -9 -10 0 -8 3 5 9 27 12 43 12 25 0z m-1163 -46 c-3 -3 -12 -4 -19 -1
-8 3 -5 6 6 6 11 1 17 -2 13 -5z m896 -25 c-5 -5 -38 -12 -73 -15 -48 -4 -61
-3 -50 5 8 6 36 11 63 11 26 0 47 5 47 11 0 5 5 7 11 3 6 -3 7 -10 2 -15z"/>
<path d="M3671 4122 c12 -23 32 -50 42 -60 11 -9 5 5 -13 33 -44 67 -58 80
-29 27z"/>
<path d="M3565 3870 c10 -11 20 -20 22 -20 2 0 -1 9 -7 20 -6 11 -16 20 -22
20 -6 0 -3 -9 7 -20z"/>
<path d="M3617 3814 c26 -36 53 -60 54 -48 0 5 2 17 4 27 2 9 -1 14 -7 11 -5
-3 -16 2 -23 12 -8 11 -15 15 -15 10 0 -5 -8 -2 -17 5 -12 10 -11 5 4 -17z"/>
<path d="M6170 3813 c0 -6 8 -17 18 -24 16 -13 16 -13 2 6 -8 11 -16 22 -17
24 -2 2 -3 0 -3 -6z"/>
<path d="M4100 3400 c8 -5 20 -10 25 -10 6 0 3 5 -5 10 -8 5 -19 10 -25 10 -5
0 -3 -5 5 -10z"/>
<path d="M7928 3906 c-13 -66 46 -116 135 -116 34 0 49 6 69 28 31 33 48 64
48 89 0 13 -6 9 -19 -13 -25 -41 -59 -64 -94 -64 -40 0 -64 15 -92 60 -29 46
-41 50 -47 16z"/>
<path d="M7175 3260 c-118 -18 -187 -57 -308 -174 -115 -112 -157 -194 -165
-324 -8 -152 48 -308 150 -418 79 -84 119 -109 239 -151 95 -33 109 -35 189
-30 275 16 513 250 537 527 7 81 -21 192 -73 291 -67 128 -204 227 -372 270
-79 20 -114 22 -197 9z m203 -132 c166 -53 290 -209 300 -378 4 -70 1 -83 -39
-184 -23 -60 -55 -124 -72 -142 -71 -82 -238 -149 -351 -142 -118 7 -252 94
-319 206 -56 93 -70 149 -65 260 4 88 8 104 42 170 68 133 147 194 299 227 71
16 116 12 205 -17z"/>
<path d="M7170 3081 c-71 -28 -176 -99 -220 -148 -86 -99 -105 -269 -42 -395
81 -163 233 -240 412 -208 92 16 142 41 205 101 73 69 95 135 95 288 0 134
-19 179 -111 267 -76 72 -105 89 -184 103 -78 15 -102 13 -155 -8z m188 -75
c73 -38 141 -135 142 -201 0 -23 -7 -35 -27 -47 -16 -9 -55 -39 -87 -67 -45
-38 -72 -53 -113 -61 -65 -14 -235 -11 -245 4 -12 17 -10 -17 3 -55 26 -77 99
-119 208 -119 102 0 165 23 221 79 52 52 57 37 6 -17 -69 -75 -216 -113 -311
-82 -58 19 -121 83 -145 146 -24 67 -27 178 -5 252 16 54 80 143 117 163 60
32 179 35 236 5z"/>
<path d="M2817 1923 c-4 -3 -7 -11 -7 -17 0 -6 5 -5 12 2 6 6 9 14 7 17 -3 3
-9 2 -12 -2z"/>
<path d="M2755 1870 c4 -6 11 -8 16 -5 14 9 11 15 -7 15 -8 0 -12 -5 -9 -10z"/>
<path d="M5315 1160 c-33 -33 -56 -60 -53 -60 9 0 119 112 115 116 -2 2 -30
-23 -62 -56z"/>
<path d="M6082 1634 c-17 -12 -22 -24 -20 -47 3 -29 6 -32 38 -32 27 0 37 6
50 28 14 27 14 29 -9 48 -28 23 -31 23 -59 3z"/>
</g>
</svg>
